<svg width="880" height="620" viewBox="0 0 880 620" fill="none" xmlns="http://www.w3.org/2000/svg">
  <rect width="880" height="620" rx="42" fill="#F8FAFC"/>
  <rect x="48" y="54" width="784" height="512" rx="34" fill="#0F172A"/>
  <circle cx="718" cy="126" r="118" fill="#7C3AED" fill-opacity=".28"/>
  <circle cx="194" cy="478" r="154" fill="#14B8A6" fill-opacity=".18"/>
  <rect x="118" y="112" width="448" height="362" rx="24" fill="white"/>
  <rect x="142" y="138" width="400" height="310" rx="18" fill="#F8FAFC" stroke="#E2E8F0" stroke-width="2"/>
  <rect x="177" y="176" width="168" height="14" rx="7" fill="#CBD5E1"/>
  <rect x="177" y="209" width="287" height="10" rx="5" fill="#E2E8F0"/>
  <rect x="177" y="232" width="238" height="10" rx="5" fill="#E2E8F0"/>
  <rect x="177" y="292" width="300" height="12" rx="6" fill="#CBD5E1"/>
  <rect x="177" y="319" width="260" height="10" rx="5" fill="#E2E8F0"/>
  <rect x="177" y="341" width="218" height="10" rx="5" fill="#E2E8F0"/>
  <path d="M387 153l19 38 42 6-30 30 7 42-38-20-38 20 7-42-30-30 42-6 19-38z" fill="#F59E0B"/>
  <circle cx="472" cy="391" r="39" fill="#6D5DF6"/>
  <path d="M452 391l13 13 28-31" stroke="white" stroke-width="8" stroke-linecap="round" stroke-linejoin="round"/>
  <path d="M454 430l18-12 18 12v56l-18-13-18 13v-56z" fill="#EF4444"/>
  <rect x="604" y="162" width="158" height="118" rx="24" fill="white" fill-opacity=".12" stroke="white" stroke-opacity=".16"/>
  <rect x="626" y="188" width="86" height="10" rx="5" fill="white" fill-opacity=".72"/>
  <rect x="626" y="214" width="110" height="9" rx="4.5" fill="white" fill-opacity=".34"/>
  <rect x="626" y="239" width="66" height="9" rx="4.5" fill="white" fill-opacity=".34"/>
  <rect x="612" y="326" width="150" height="150" rx="26" fill="white" fill-opacity=".12" stroke="white" stroke-opacity=".16"/>
  <rect x="638" y="352" width="46" height="46" rx="10" fill="#14B8A6"/>
  <rect x="698" y="352" width="38" height="12" rx="6" fill="white" fill-opacity=".65"/>
  <rect x="638" y="418" width="98" height="9" rx="4.5" fill="white" fill-opacity=".34"/>
  <rect x="638" y="443" width="70" height="9" rx="4.5" fill="white" fill-opacity=".34"/>
  <path d="M657 374l10 10 22-26" stroke="white" stroke-width="7" stroke-linecap="round" stroke-linejoin="round"/>
  <rect x="104" y="86" width="672" height="60" rx="22" fill="white" fill-opacity=".1" stroke="white" stroke-opacity=".14"/>
  <circle cx="134" cy="116" r="9" fill="#EF4444"/>
  <circle cx="164" cy="116" r="9" fill="#F59E0B"/>
  <circle cx="194" cy="116" r="9" fill="#22C55E"/>
  <rect x="236" y="105" width="214" height="18" rx="9" fill="white" fill-opacity=".25"/>
  <rect x="642" y="105" width="86" height="18" rx="9" fill="white" fill-opacity=".25"/>
</svg>
